<?xml version="1.0" encoding="UTF-8"?>
<svg id="_Режим_изоляции" data-name="Режим изоляции" xmlns="http://www.w3.org/2000/svg" viewBox="0 0 38.12 41.71">
  <defs>
    <style>
      .cls-1 {
        fill: #fff;
      }
    </style>
  </defs>
  <path class="cls-1" d="m14.75,17.83c-.74.47-1.44.99-2.21,1.37-5.09,2.49-11.21-.56-12.24-6.15-.39-2.14-.5-4.32.21-6.45C1.79,2.81,5.77.31,9.74.82c1.86.24,3.47.98,4.86,2.24,1.37,1.23,2.96,1.76,4.79,1.55,1.27-.15,2.39-.65,3.31-1.54.83-.8,1.67-1.57,2.7-2.11,3.51-1.86,8.08-.93,10.61,2.14,1.29,1.57,1.97,3.37,2.04,5.4.05,1.37.19,2.74-.15,4.1-.58,2.36-1.92,4.16-3.96,5.45-.23.15-.32.3-.34.57-.22,3.76-3.26,7.14-6.99,7.78-.79.13-1.59.17-2.38.32-2.56.5-4.54,2.83-4.64,5.42-.05,1.2-.06,2.39-.43,3.56-1.26,3.93-5.24,6.48-9.34,5.95-1.78-.23-3.36-.93-4.69-2.14-1.11-1-2.25-1.96-3.07-3.24-2.13-3.32-1.59-8,1.26-10.75,1.57-1.52,3.43-2.37,5.61-2.49,1.62-.09,3.05-.62,4.19-1.81.91-.95,1.49-2.07,1.63-3.37Zm4.77-2.42c-.14.52-.33,1.01-.39,1.52-.1.82-.07,1.65-.16,2.47-.3,2.61-1.57,4.67-3.71,6.18-1.5,1.06-3.21,1.42-5.01,1.57-1.94.17-3.48,1.13-4.41,2.86-1.11,2.05-.85,4.12.18,6.13.14.27.33.59.58.73,2.7,1.56,6.4.51,7.95-2.2.68-1.18.83-2.45.83-3.78,0-1.92.65-3.64,1.84-5.13,1.61-2.01,3.71-3.13,6.29-3.29,1.64-.1,3.08-.62,4.22-1.83.37-.39.67-.86,1.06-1.35-1.26-.13-2.36-.39-3.33-.97-.77-.46-1.49-1.03-2.2-1.58-1.09-.85-2.3-1.31-3.74-1.34ZM29.12,1.26s-.02-.07-.03-.1c-.78.19-1.58.34-2.35.59-1.24.4-2.16,1.27-3.09,2.14-2.01,1.89-4.38,2.44-7.03,1.72-1.26-.34-2.26-1.1-3.23-1.93-1.21-1.03-2.63-1.57-4.21-1.65-3.23-.17-6,1.58-7.29,4.54-1.82,4.18.76,9.18,5.22,10.09,2.75.56,5.1-.22,7.07-2.22,2.87-2.92,7.12-3.02,10.19-.31,2.25,1.98,4.85,2.51,7.64,1.44,2.88-1.1,4.51-3.31,4.74-6.37.36-4.61-3.43-8.12-7.64-7.94ZM9.93,40.33c2.44.5,5.44-.77,6.97-2.93,1.01-1.42,1.46-3.01,1.42-4.74-.03-1.24.22-2.42.82-3.5,1.32-2.4,3.37-3.68,6.1-3.86,2.89-.19,5.01-1.57,6.37-4.11.38-.71.62-1.48.69-2.3-.38-.02-.53.17-.63.47-.51,1.5-1.38,2.76-2.59,3.78-1.55,1.32-3.37,1.94-5.39,2.06-2,.12-3.55,1.06-4.66,2.71-.8,1.19-.94,2.54-.96,3.94-.05,2.94-1.36,5.24-3.73,6.94-1.31.94-2.8,1.41-4.4,1.54ZM3.14,16.17s.05.09.09.13c1.62,1.78,3.63,2.62,6.03,2.49,1.98-.11,3.63-.94,5-2.38,1.43-1.49,3.19-2.26,5.25-2.26,1.96,0,3.59.79,5.07,2.05,2.75,2.36,6.41,2.47,9.33.34.63-.46,1.18-1.01,1.57-1.7-.07.02-.11.07-.16.11-2.15,1.96-4.67,2.7-7.54,2.22-1.68-.28-3.1-1.09-4.37-2.2-1.71-1.5-3.68-1.9-5.86-1.24-1.17.36-2.04,1.16-2.91,1.98-2.09,1.97-4.59,2.68-7.41,2.25-1.52-.23-2.86-.89-4.1-1.8Zm27.22,3.17s-.09-.07-.13-.1c-.08.13-.16.26-.25.38-.45.64-.83,1.35-1.36,1.91-1.27,1.35-2.87,2.05-4.72,2.15-2.23.12-4.11.96-5.56,2.69-1.22,1.45-1.78,3.14-1.73,5.03.04,1.24-.21,2.42-.78,3.52-2.1,4.05-7.21,5.17-10.73,2.48-2.31-1.77-3.27-4.18-2.74-7.03.65-3.49,3.3-5.69,6.85-5.92,2.81-.18,4.9-1.53,6.24-3.99.69-1.26.92-2.62.75-4.06-.09.14-.14.3-.13.46.03,3.03-1.7,5.69-4.46,6.85-.97.4-1.99.47-3.01.59-4.64.52-7.6,5.01-6.28,9.49.86,2.92,3.53,5.07,6.53,5.26,3.15.2,6.04-1.52,7.31-4.33.53-1.17.67-2.4.66-3.67-.02-3.05,2.03-5.9,4.95-6.75.99-.29,2.05-.31,3.07-.52,2.62-.52,4.41-2.06,5.5-4.45Zm-12.35-3.73c-.35-.02-.44.21-.45.58,0,.72,0,1.45-.1,2.16-.54,3.85-3.74,6.91-7.6,7.32-.64.07-1.29.09-1.9.25-2.61.66-4.41,2.97-4.47,5.66-.02.75.11,1.49.44,2.19.02-.2,0-.4-.02-.6-.08-2.05.51-3.84,2-5.29,1.31-1.27,2.88-1.93,4.7-2.03,3.59-.2,6.4-2.58,7.04-6.1.25-1.35.25-2.74.36-4.14Z"/>
  <path class="cls-1" d="m8.36,2.24c2.03-.05,3.72.55,5.16,1.84,1.08.96,2.29,1.66,3.72,1.91,2.48.44,4.67-.16,6.5-1.89.92-.87,1.84-1.69,3.04-2.16,4.7-1.85,9.88,1.76,9.78,6.81-.09,4.12-3.4,7.26-7.53,7.1-1.67-.06-3.15-.67-4.39-1.79-1.14-1.02-2.42-1.75-3.94-1.99-2.42-.38-4.56.23-6.34,1.92-.93.88-1.86,1.7-3.08,2.17-4.15,1.6-8.85-1.04-9.62-5.42C.95,6.74,3.51,3.06,7.5,2.33c.31-.06.64-.07.85-.09Zm10.02,7.19c-.73-.15-1.54-.28-2.31-.5-1.35-.38-2.44-1.21-3.51-2.09-1.65-1.36-3.55-1.77-5.59-1.04-1.67.6-2.72,1.87-3.52,3.43-.64,1.25-.51,2.37.29,3.46.04.05.08.11.11.16,2.14,2.99,6.38,3.38,9,.8,1.07-1.05,2.23-1.94,3.65-2.46.1-.03.19-.1.26-.18.55-.54,1.09-1.09,1.61-1.6Zm5.37-1.66c.05.04.07.07.1.07.09.01.18.02.28.03,1.82.13,3.46.75,4.85,1.94,1.33,1.14,2.7,2.27,3.58,3.86,1.16-.76,1.94-1.77,2.42-3.04.22-.59.3-1.16-.02-1.73-.34-.63-.66-1.28-1.08-1.86-1.6-2.21-4.47-2.92-6.93-1.82-1.29.58-2.09,1.75-3.21,2.54Zm-20.34-.9c.15-.15.3-.3.45-.45,2.05-2.06,4.46-2.71,7.25-1.82,1.16.37,2.05,1.15,3,1.88,2.44,1.88,5.1,2.14,7.9.88,1.02-.46,1.78-1.25,2.58-2,2.53-2.4,6.32-2.54,9.03-.36.26.21.51.43.76.64,0-.13-.05-.23-.1-.31-1.34-2.01-3.98-3.01-6.32-2.42-1.35.34-2.37,1.15-3.33,2.1-1.33,1.32-2.96,2.09-4.82,2.31-2.69.32-5.04-.46-7.08-2.26-1.97-1.73-4.2-2.03-6.59-.95-1.25.57-2.15,1.53-2.72,2.78Zm25.68,7.71c-.29-.88-.65-1.64-1.6-1.91-.52-.15-1.04-.34-1.58-.43-.49-.09-1-.07-1.59-.1,1.41,1.32,2.79,2.41,4.77,2.44Zm1.37-.07c.08-1.08-1.41-3.36-3.24-4.42-2.89-1.66-6.39-1.04-8.22.66,1.35-.83,2.78-1.42,4.39-1.43,1.63,0,3.1.46,4.41,1.43,1.3.96,2.14,2.24,2.67,3.76Zm-8.86-3.58c.44.18.86.41,1.36.19.16-.07.33-.09.5-.11.55-.06,1.1-.11,1.76-.17-1.29-.37-2.46-.35-3.63.09Z"/>
</svg>