<?xml version="1.0" encoding="UTF-8"?>
<svg id="_Режим_изоляции" data-name="Режим изоляции" xmlns="http://www.w3.org/2000/svg" viewBox="0 0 51.42 44.08">
  <defs>
    <style>
      .cls-1 {
        fill: #fff;
        stroke: #000;
        stroke-miterlimit: 10;
        stroke-width: .75px;
      }
    </style>
  </defs>
  <g>
    <path class="cls-1" d="m27.76,1.19s-3.73,5.31-7.48,9.73c-3.23,1.04-6.73,2.29-8.76,3.37-2.49,1.34-6.39,4.19-8.85,7.13-.93-.18-1.65-.67-2.05-1.59-.16-.37-.24-.77-.24-1.18C.38,14.61,7.64,8.87,11.51,6.79,16,4.38,27.76,1.19,27.76,1.19Z"/>
    <path class="cls-1" d="m27.76,1.19v7.5s-7.91,11.26-12.3,14.65c-3.67,2.83-8.69,5.67-11.94,5.67-1.35,0-2.39-.49-2.9-1.67-.16-.37-.24-.77-.24-1.18v-7.5c0,.41.07.81.24,1.18.4.92,1.12,1.41,2.05,1.59.27.05.55.08.85.08,3.25,0,8.27-2.83,11.94-5.67,1.38-1.06,3.1-2.9,4.82-4.92,3.76-4.42,7.48-9.73,7.48-9.73Z"/>
    <rect class="cls-1" x="28.06" y="1.19" width="5.58" height="7.39"/>
  </g>
  <g>
    <path class="cls-1" d="m23.67,42.89s3.73-5.31,7.48-9.73c3.23-1.04,6.73-2.29,8.76-3.37,2.49-1.34,6.39-4.19,8.85-7.13.93.18,1.65.67,2.05,1.59.16.37.24.77.24,1.18,0,4.04-7.26,9.78-11.14,11.86-4.49,2.41-16.24,5.61-16.24,5.61Z"/>
    <path class="cls-1" d="m23.67,42.89v-7.5s7.91-11.26,12.3-14.65c3.67-2.83,8.69-5.67,11.94-5.67,1.35,0,2.39.49,2.9,1.67.16.37.24.77.24,1.18v7.5c0-.41-.07-.81-.24-1.18-.4-.92-1.12-1.41-2.05-1.59-.27-.05-.55-.08-.85-.08-3.25,0-8.27,2.83-11.94,5.67-1.38,1.06-3.1,2.9-4.82,4.92-3.76,4.42-7.48,9.73-7.48,9.73Z"/>
    <rect class="cls-1" x="17.78" y="35.51" width="5.58" height="7.39" transform="translate(41.14 78.4) rotate(180)"/>
  </g>
</svg>