<?xml version="1.0" encoding="UTF-8"?>
<svg id="_Режим_изоляции" data-name="Режим изоляции" xmlns="http://www.w3.org/2000/svg" viewBox="0 0 41.71 41.71">
  <defs>
    <style>
      .cls-1 {
        fill: #fff;
      }
    </style>
  </defs>
  <path class="cls-1" d="m19.92,41.71c-.43-.04-.86-.08-1.29-.12-3.26-.35-6.27-1.39-9.02-3.17-4.09-2.65-6.94-6.28-8.52-10.89C.19,24.86-.15,22.13.06,19.33.63,11.69,5.29,5.02,12.25,1.85c2.18-.99,4.47-1.58,6.86-1.78,2.98-.25,5.88.12,8.71,1.11.14.05.2.1.2.26-.01.78,0,1.56,0,2.32-6.78-2.47-13.11-1.74-18.8,2.79-4.02,3.2-6.25,7.47-6.73,12.59-1.03,11.03,7.77,20.42,18.79,20.15,5.84-.14,10.63-2.57,14.2-7.19,3.58-4.63,4.57-9.88,3.36-15.58.02,0,.04-.02.07-.02.74,0,1.48,0,2.21,0,.14,0,.17.06.18.18.13,1,.26,2.01.38,3.01.01.09.02.18.04.27v1.83c-.01.08-.03.17-.04.25-.06,1.18-.22,2.34-.49,3.49-1.3,5.42-4.28,9.68-8.91,12.77-2.78,1.86-5.86,2.93-9.19,3.29-.43.05-.86.08-1.29.12h-1.87Z"/>
  <path class="cls-1" d="m17.87,22.9c6.36-7.53,13.62-14,21.97-19.26.1.24.2.46.29.68.18.42.35.84.54,1.25.07.15.04.23-.07.34-1.76,1.65-3.43,3.39-5.03,5.19-3.5,3.96-6.67,8.17-9.52,12.62-1.9,2.97-3.67,6.03-5.12,9.25-.21.46-.4.94-.6,1.41,0,0-.01,0-.05.02-4.89-5.05-9.8-10.11-14.72-15.2,1.26-1.03,2.52-2.05,3.78-3.08,2.84,2.26,5.68,4.52,8.52,6.78Z"/>
</svg>