<?xml version="1.0" encoding="UTF-8"?>
<svg id="_Режим_изоляции" data-name="Режим изоляции" xmlns="http://www.w3.org/2000/svg" viewBox="0 0 41.7 41.71">
  <defs>
    <style>
      .cls-1 {
        fill: #fff;
      }
    </style>
  </defs>
  <path class="cls-1" d="m6.15,37.71c-.91-.18-1.86-.25-2.73-.55-1.91-.64-2.92-2.09-3.27-4.03-.42-2.36.09-4.61.85-6.83,1.18-3.41,3-6.48,5.14-9.36,3.21-4.33,7.01-8.09,11.39-11.23,3.08-2.21,6.36-4.06,10.04-5.12,1.56-.45,3.14-.71,4.76-.57,2.8.24,4.8,1.68,5.2,4.88.29,2.31-.25,4.5-1.01,6.65-1.03,2.9-2.55,5.56-4.32,8.07-3.38,4.81-7.47,8.92-12.25,12.34-2.73,1.95-5.63,3.59-8.81,4.7-1.6.56-3.47.92-4.97.92,0,.04-.02.08-.02.12ZM32.38,6.64c-.5.15-1,.28-1.49.46-4.7,1.65-8.69,4.42-12.38,7.69-1.89,1.67-3.61,3.5-5.2,5.46-2.27,2.8-4.24,5.79-5.63,9.13-.4.97-.71,1.98-1.07,3,.22.09.36.15.49.2,1.28.49,2.59.38,3.89.11,2.25-.48,4.29-1.46,6.24-2.65,3.37-2.06,6.31-4.63,8.93-7.58,2.12-2.39,3.97-4.98,5.31-7.89.75-1.62,1.34-3.3,1.42-5.11.04-.96-.03-1.89-.5-2.8ZM5.27,31.12c2.02-6.17,5.7-11.2,10.19-15.69,4.48-4.48,9.52-8.15,15.66-10.16-.74-.45-1.5-.63-2.29-.67-1.71-.08-3.33.37-4.89,1-3.59,1.46-6.68,3.7-9.52,6.31-3.11,2.86-5.79,6.07-7.78,9.82-1.09,2.06-1.97,4.19-2.04,6.57-.03.98.13,1.91.67,2.82Z"/>
  <path class="cls-1" d="m39.21,4.8c1.47,1.15,2.31,2.59,2.45,4.44.21,2.71-.53,5.23-1.56,7.68-1.47,3.48-3.53,6.6-5.9,9.53-1.91,2.36-4.01,4.55-6.3,6.53-3.61,3.13-7.5,5.81-11.99,7.52-1.87.71-3.78,1.19-5.79,1.21-2.16.02-3.96-.73-5.34-2.54.93,0,1.84.06,2.74-.01,1.84-.15,3.59-.69,5.31-1.36,3.56-1.4,6.77-3.39,9.78-5.74,4.73-3.7,8.78-8.03,12.02-13.09,1.79-2.78,3.25-5.72,4.08-8.94.43-1.65.69-3.32.49-5.03,0-.05,0-.1.01-.19Z"/>
</svg>