<?xml version="1.0" encoding="UTF-8"?>
<svg id="_Режим_изоляции" data-name="Режим изоляции" xmlns="http://www.w3.org/2000/svg" viewBox="0 0 41.64 41.71">
  <defs>
    <style>
      .cls-1 {
        fill: #fff;
      }
    </style>
  </defs>
  <path class="cls-1" d="m11.05,20.18c-.07-.92.18-1.44.79-1.67.6-.22,1.08-.02,1.51.41,2.76,2.77,5.53,5.53,8.29,8.3.36.36.73.73,1.09,1.09.55.55.67,1.09.38,1.66-.28.55-.78.76-1.58.65-.07.2-.14.4-.2.6-.68,2.28-1.55,4.47-3.04,6.36-2.26,2.87-5.2,4.27-8.86,4.11-4.66-.2-8.84-4.09-9.35-8.71-.51-4.52,1.35-7.9,5.08-10.34,1.64-1.07,3.46-1.74,5.32-2.3.18-.05.36-.11.57-.17Zm3.19,3.37c-1.01-1.29-1.01-1.3-2.4-.89-1.84.54-3.65,1.12-5.27,2.18-2.77,1.8-4.28,4.26-3.94,7.66.42,4.2,4.57,7.3,8.74,6.54,2.47-.45,4.22-1.88,5.53-3.94,1.23-1.92,1.8-4.1,2.45-6.25.03-.09,0-.23-.07-.31-.33-.38-.67-.74-1.07-1.17-.1.27-.17.41-.21.56-.33.99-.64,1.98-.98,2.97-.54,1.56-1.15,3.08-2.2,4.39-2.67,3.31-7.72,2.97-9.86-.67-1.65-2.8-.78-6.24,2.05-8.15,1.24-.84,2.63-1.37,4.03-1.85,1.05-.36,2.11-.7,3.22-1.06Zm1.83,2.15c-.08-.02-.11-.04-.13-.03-1.65.57-3.31,1.12-4.95,1.71-1.13.41-2.25.88-3.16,1.71-1.06.96-1.4,2.43-.88,3.75.51,1.3,1.73,2.11,3.17,2.1,1.19,0,2.14-.51,2.8-1.48.35-.52.7-1.07.92-1.65.77-2.02,1.48-4.07,2.22-6.11Z"/>
  <path class="cls-1" d="m30.56,21.59c.11.83-.1,1.31-.64,1.59-.57.29-1.11.17-1.66-.38-3.14-3.14-6.28-6.28-9.42-9.42-.38-.38-.57-.81-.42-1.35.13-.48.45-.8.93-.91.23-.05.49,0,.75,0,.3-.89.58-1.79.91-2.66.86-2.32,2.07-4.44,4.01-6.02C28.07-.07,31.54-.67,35.21.76c3.66,1.43,5.83,4.22,6.33,8.13.5,3.88-.95,7.02-3.98,9.44-1.81,1.45-3.91,2.31-6.1,2.98-.29.09-.59.18-.9.28Zm-7.13-7.25c.07-.16.11-.23.14-.31.32-.97.64-1.95.97-2.92.53-1.53,1.11-3.04,2.08-4.35,1.18-1.59,2.76-2.42,4.74-2.49,3.77-.14,6.66,3.12,6.07,6.85-.32,2.01-1.48,3.41-3.17,4.43-1.56.95-3.28,1.49-5,2.06-.61.2-1.22.4-2,.66.44.39.78.72,1.14,1.01.12.09.34.14.49.11.61-.16,1.21-.35,1.81-.54,2.05-.63,4.01-1.44,5.65-2.87,2.79-2.43,3.52-6.28,1.78-9.43-1.73-3.14-5.39-4.63-8.83-3.57-2.19.67-3.68,2.18-4.81,4.1-1.08,1.83-1.61,3.87-2.22,5.87-.02.08,0,.21.06.27.35.37.71.73,1.09,1.13Zm2.13,1.7s.06.08.09.12c2.23-.84,4.47-1.66,6.69-2.53.51-.2.97-.55,1.39-.91,1.5-1.29,1.58-3.55.19-4.94-1.36-1.36-3.7-1.29-4.95.2-.44.52-.84,1.12-1.08,1.75-.82,2.09-1.56,4.21-2.33,6.31Z"/>
  <path class="cls-1" d="m28.24,33.31c0,.21,0,.43,0,.65-.03.69-.57,1.21-1.25,1.23-.7.01-1.25-.51-1.32-1.21-.1-.99-.17-1.99-.36-2.97-.22-1.12-.81-2.07-1.62-2.88-3.25-3.25-6.5-6.51-9.76-9.76-.37-.37-.6-.77-.49-1.3.1-.5.4-.84.9-.99.5-.15.93-.03,1.3.33.69.68,1.38,1.37,2.06,2.05,2.59,2.59,5.16,5.19,7.77,7.76,1.98,1.95,2.68,4.39,2.78,7.08Z"/>
  <path class="cls-1" d="m26.64,25.99c-.3-.17-.64-.29-.88-.52-3.2-3.18-6.39-6.37-9.57-9.56-.54-.55-.55-1.35-.05-1.86.52-.53,1.32-.53,1.89.04,3.19,3.18,6.38,6.37,9.57,9.56.42.42.56.92.32,1.49-.2.49-.68.78-1.28.85Z"/>
</svg>