<?xml version="1.0" encoding="UTF-8"?>
<svg id="_Режим_изоляции" data-name="Режим изоляции" xmlns="http://www.w3.org/2000/svg" viewBox="0 0 42.74 42.75">
  <defs>
    <style>
      .cls-1 {
        fill: #fff;
      }
    </style>
  </defs>
  <path class="cls-1" d="m6.35,42.75c-.97-.23-1.65-.77-1.86-1.78-.14-.7.03-1.34.53-1.84,1.21-1.23,2.46-2.42,3.66-3.61-.5-.49-.95-.93-1.44-1.42-1.17,1.18-2.37,2.42-3.6,3.63-.74.73-1.88.78-2.71.17-1.16-.84-1.24-2.36-.17-3.44,1.35-1.36,2.71-2.72,4.08-4.07.21-.21.27-.38.19-.69-.93-3.47-.41-6.73,1.57-9.73,1.02-1.55,2.36-2.78,4.01-3.61.74-.38,1.6-.5,2.41-.75.61-.19,1.22-.38,1.81-.6.12-.05.24-.22.28-.36.3-.96.61-1.92.86-2.9.3-1.18.93-2.16,1.7-3.06,2.14-2.51,4.86-3.89,8.15-4.12,1.34-.09,2.66.01,3.95.41.26.08.44.04.65-.17,1.35-1.37,2.71-2.73,4.07-4.08.78-.78,1.8-.96,2.66-.5,1.32.72,1.59,2.38.54,3.46-1.07,1.1-2.16,2.17-3.25,3.25-.11.11-.25.18-.34.24.53.51.97.95,1.47,1.43.32-.33.67-.72,1.04-1.1.82-.83,1.64-1.66,2.48-2.47.85-.82,2.15-.81,3.01,0,.81.76.88,2.06.16,2.95-.1.13-.22.25-.34.37-1.33,1.33-2.65,2.66-3.99,3.98-.19.19-.26.35-.17.61.37,1.1.48,2.26.46,3.41-.02,1.5-.32,2.97-.92,4.36-1.02,2.39-2.65,4.26-4.92,5.52-.72.4-1.59.54-2.39.8-.66.21-1.32.41-1.97.64-.13.04-.26.2-.3.33-.35,1.12-.66,2.26-1.03,3.37-.59,1.74-1.76,3.06-3.15,4.2-1.63,1.35-3.51,2.15-5.59,2.46-1.62.25-3.24.18-4.82-.29-.35-.1-.57-.05-.83.22-1.24,1.28-2.52,2.52-3.77,3.79-.46.46-.95.84-1.6.99h-.58Zm5.42-10.38c.95-.78,1.77-1.5,2.64-2.18,2.98-2.32,6.22-4.21,9.69-5.69.18-.08.37-.26.44-.44,1.68-3.97,3.91-7.61,6.67-10.92.38-.45.77-.9,1.16-1.35-.24-.28-.45-.54-.69-.78-.23-.23-.49-.43-.73-.63-.07.04-.1.04-.12.06-3.61,3.28-7.68,5.85-12.17,7.76-.19.08-.36.3-.45.49-1.31,3.07-2.93,5.97-4.93,8.65-.9,1.21-1.87,2.37-2.88,3.64.43.43.89.9,1.35,1.37Zm22.06-15.51c-1.42,1.81-2.62,3.63-3.62,5.58,2.1-1.23,3.27-3.06,3.62-5.58Zm-7.94-7.94c-2.5.35-4.35,1.51-5.57,3.62,1.94-1.01,3.78-2.19,5.57-3.62Zm-13.28,11.34c-2.01.98-3.57,3.57-3.55,5.41.64-.59,2.74-3.77,3.55-5.41Zm4.41,13.32s.04.09.07.14c1.86.04,5.22-2.2,5.34-3.67-1.84,1.21-3.62,2.37-5.4,3.54Z"/>
</svg>