<?xml version="1.0" encoding="UTF-8"?>
<svg id="_Режим_изоляции" data-name="Режим изоляции" xmlns="http://www.w3.org/2000/svg" viewBox="0 0 341.62 82.76">
  <defs>
    <style>
      .cls-1 {
        fill: #fff;
      }

      .cls-2 {
        fill: #009ee2;
      }

      .cls-3 {
        fill: #e5007e;
      }

      .cls-4 {
        fill: #e20613;
      }
    </style>
  </defs>
  <polygon class="cls-1" points="12.21 54.08 12.21 5.83 19.17 5.83 28.46 31.38 28.6 31.38 37.82 5.83 47.75 5.83 47.75 54.08 37.61 54.08 37.61 24.74 37.46 24.74 30.3 45.47 26.68 45.47 19.59 24.74 19.45 24.74 19.45 54.08 12.21 54.08"/>
  <path class="cls-1" d="m150.24,49.92c0,2.99,1.18,4.51,3.49,4.51s3.48-1.52,3.48-3.83V9.43h9.67v40.54c0,3.93-1.18,7.12-3.48,9.52-2.31,2.41-5.55,3.58-9.82,3.58-8.49,0-13.1-4.76-13.05-13.15h9.72Z"/>
  <path class="cls-1" d="m185.35,52.74l-.16-2.55h-.1c-.6.96-1.21,1.7-1.85,2.24-.64.53-1.57.84-2.77.91-.59.04-1.19-.02-1.81-.16-.62-.14-1.21-.44-1.8-.9-.58-.42-1.07-1.06-1.47-1.9-.4-.84-.63-1.95-.72-3.32-.09-1.4-.05-2.64.11-3.72.16-1.08.53-1.99,1.11-2.75.55-.72,1.31-1.29,2.3-1.69.99-.41,2.27-.66,3.84-.76.16-.01.34-.02.54-.04.2-.01.38,0,.54.02.17.02.36.03.59.01.23-.01.48-.01.74,0l-.16-2.6c-.05-.85-.28-1.54-.67-2.07-.39-.53-1.06-.77-2.01-.71-.65.04-1.24.29-1.75.75-.51.46-.83,1.1-.94,1.93l-4.85.31c0-2.23.63-4.07,1.91-5.53.61-.69,1.36-1.26,2.25-1.69.89-.43,1.91-.68,3.05-.76,1.04-.07,2.03.04,2.97.31.94.27,1.77.71,2.49,1.32.69.61,1.27,1.39,1.72,2.35.45.95.72,2.08.8,3.39l1.08,17.29-5,.31Zm-.67-10.68c-.56-.06-1.02-.09-1.38-.06-1.08.07-1.98.38-2.72.93-.74.55-1.07,1.5-.98,2.84.06.95.34,1.7.83,2.26.49.56,1.15.81,1.96.76.85-.05,1.49-.37,1.94-.96.44-.58.62-1.38.56-2.39l-.21-3.38Z"/>
  <path class="cls-1" d="m218.92,49.66c-2.91,1.22-5.71,1.93-8.4,2.12-2.68.19-5.1-.25-7.27-1.34-2.17-1.08-3.91-2.64-5.23-4.67-1.31-2.03-2.07-4.39-2.26-7.08-.29-4.05.78-7.5,3.23-10.37,2.44-2.87,5.53-4.44,9.26-4.71,2.76-.2,5.71.11,8.86.92l.31,4.28c-3.21-1.19-6.04-1.7-8.5-1.53-1.62.12-3.13.63-4.5,1.54-1.38.91-2.39,2.24-3.05,4-.66,1.76-.92,3.54-.79,5.34.17,2.41,1.09,4.65,2.76,6.72,1.66,2.07,4.11,3,7.32,2.76.97-.07,1.92-.21,2.85-.41.93-.2,2.63-.83,5.1-1.87l.31,4.28Z"/>
  <path class="cls-1" d="m244.14,51.86c.87,1.66,1.96,3.15,3.25,4.46l-3.81,3.89c-.69-.61-1.32-1.32-1.89-2.13-.14-.18-.97-1.62-2.5-4.35-2.14.25-4.35-.08-6.62-.97-3.87-1.51-6.43-4.18-7.69-8.01-1.26-3.83-.81-8.48,1.33-13.98,2.15-5.51,4.99-9.23,8.53-11.18,3.53-1.95,7.25-2.16,11.15-.63,3.86,1.51,6.41,4.17,7.67,8,1.26,3.83.82,8.49-1.33,13.98-1.04,2.66-2.2,4.85-3.49,6.56-1.28,1.71-2.82,3.16-4.61,4.35m-2.9-5.43c2.15-1.39,3.96-3.94,5.4-7.64,1.5-3.84,1.92-6.95,1.26-9.34-.67-2.38-2.09-4-4.26-4.85-2.17-.85-4.32-.63-6.43.68-2.12,1.3-3.92,3.86-5.42,7.68-1.52,3.88-1.94,7.03-1.28,9.44.66,2.41,2.03,4.02,4.1,4.83.77.3,1.57.43,2.39.4-.78-1.34-1.63-2.46-2.55-3.36l2.99-3.18c1.49,1.44,2.76,3.22,3.8,5.34"/>
  <path class="cls-1" d="m294.36,43.81c-1.01,1.66-2.23,2.92-3.66,3.76-1.42.84-2.74,1.26-3.93,1.26-1.67,0-3.17-.72-4.5-2.16-1.33-1.44-2-3.63-2-6.56,0-2.32.44-4.38,1.33-6.2.89-1.82,2.07-3.26,3.55-4.31,1.48-1.06,3.31-1.58,5.5-1.58.63,0,1.59.07,2.86.2.19.02.48.05.85.09h3.34v14.11c0,2.41.26,4.37.77,5.87h-3.47c-.27-1.09-.48-2.58-.64-4.47m.01-3.98v-8.58c-1.18-.31-2.28-.47-3.3-.47-2.06,0-3.76.8-5.13,2.38-1.37,1.59-2.05,3.75-2.05,6.49,0,1.98.37,3.48,1.12,4.49.75,1.01,1.6,1.51,2.56,1.51,1.04,0,2.19-.53,3.44-1.58,1.25-1.05,2.38-2.47,3.37-4.25"/>
  <path class="cls-1" d="m307.52,32.11h3.67l.6,2.74c.51-1.07,1.23-1.82,2.17-2.25.93-.43,2.19-.65,3.77-.65v4.74h-.57c-3.36,0-5.04,1.62-5.04,4.87v7.74h-4.6v-17.18Z"/>
  <path class="cls-1" d="m335.05,53.83v-2.56c-.33.36-.64.7-.94,1.01-.29.31-.62.58-.98.81-.36.23-.77.41-1.23.54s-1,.2-1.62.2c-2.1,0-3.55-.79-4.37-2.36-.29-.56-.51-1.24-.63-2.06-.13-.82-.2-1.91-.2-3.29v-9.47c0-1.8.05-3.12.14-3.98.2-1.63.96-2.86,2.31-3.68.62-.42,1.55-.64,2.8-.64.98,0,1.86.22,2.62.66.77.44,1.43,1.07,1.99,1.89h.1V14.3h6.57v39.53h-6.57Zm-4.96-8.4c0,1.01.2,1.83.59,2.45.39.62,1.01.93,1.86.93.75,0,1.35-.29,1.82-.86.46-.57.69-1.32.69-2.23v-9.67c0-.78-.24-1.43-.71-1.94-.48-.51-1.07-.76-1.79-.76-.95,0-1.6.3-1.94.89-.35.59-.52,1.27-.52,2.06v9.13Z"/>
  <path class="cls-1" d="m83.87,53.18c1.33,1.18,3.58,2.05,5.45,2.05,3.04,0,4.52-2.52,4.52-6,0-3.86-1.47-5.76-4.27-8.68-4.52-4.42-6.23-10.02-6.23-14.83,0-8.52,3.53-15.62,10.45-15.62,2.16,0,4.22.95,5.2,1.89l-1.03,8.91c-.93-.95-2.35-1.81-4.22-1.81-2.75,0-4.07,2.68-4.07,5.52,0,3.15.98,4.81,4.56,8.28,4.37,4.26,5.99,9.62,5.99,15.22,0,9.7-4.47,16.09-10.94,16.09-2.65,0-5.25-1.1-6.33-2.13l.93-8.91Z"/>
  <path class="cls-1" d="m75.83,26.71c2.13,2.36,3.19,5.56,3.19,9.62s-1.06,7.26-3.19,9.62c-2.13,2.36-5.02,3.53-8.69,3.53s-6.55-1.18-8.66-3.53c-2.11-2.36-3.17-5.56-3.17-9.62s1.06-7.26,3.17-9.62c2.11-2.36,5-3.53,8.66-3.53s6.56,1.18,8.69,3.53m-14.04,2.58c-1.31,1.72-1.96,4.07-1.96,7.04s.66,5.33,1.96,7.04c1.31,1.72,3.09,2.58,5.35,2.58s4.09-.86,5.4-2.58c1.31-1.72,1.96-4.07,1.96-7.04s-.65-5.33-1.96-7.04c-1.31-1.72-3.11-2.58-5.4-2.58s-4.04.86-5.35,2.58"/>
  <path class="cls-1" d="m273.43,28.02v15.38c0,.93-.03,1.67-.09,2.2-.08.54-.22,1.02-.4,1.43-.25.62-.66,1.2-1.24,1.74-.58.54-1.33.97-2.24,1.3-.91.33-2.01.5-3.29.5-1.53,0-2.84-.23-3.92-.68-1.06-.45-1.87-1.14-2.45-2.05-.25-.37-.43-.73-.56-1.08-.15-.33-.24-.77-.28-1.3-.06-.54-.09-1.28-.09-2.24v-15.09h5v14.97c0,.6.04,1.13.13,1.58.08.45.25.83.5,1.12.16.23.39.4.68.53.29.12.62.19,1,.19.41,0,.76-.04,1.05-.13.27-.1.49-.26.65-.46.21-.25.35-.6.44-1.06.08-.46.13-1.02.13-1.68v-15.1h4.97l.03-.06Z"/>
  <g>
    <polygon class="cls-1" points="4.37 .91 9.08 67.54 51.98 63.07 51.98 66.78 4.92 71.54 0 1.86 4.37 .91"/>
    <rect class="cls-1" x="56.13" y="54.83" width="21.31" height="4"/>
    <polygon class="cls-1" points="169.94 59.59 193.11 57.78 193.19 54.15 169.94 55.92 169.94 59.59"/>
    <polygon class="cls-1" points="213.65 61.89 188.91 64.1 189.04 58.1 193.11 57.78 193.06 60.1 214.32 58.2 213.65 61.89"/>
    <polygon class="cls-1" points="220.93 21.5 221.74 36.04 225.76 13.71 222.44 13.11 220.93 21.5"/>
    <polygon class="cls-1" points="277.18 61.32 251.49 61.32 250.74 65.44 277.18 65.44 277.18 61.32"/>
    <polygon class="cls-1" points="281.33 53.77 281.33 57.32 301.03 54.57 301.03 51.15 281.33 53.77"/>
    <path class="cls-1" d="m303.4,52.1l.54-21.44-.54,21.44Z"/>
    <polygon class="cls-1" points="318.2 54.24 318.2 58.84 301.03 56.36 301.03 30.53 303.94 30.66 303.94 52.1 318.2 54.24"/>
    <g>
      <polygon class="cls-1" points="73.36 59.01 72.99 76.81 96.97 82.76 97.62 77.89 77.15 72.81 77.44 59.01 73.36 59.01"/>
      <polygon class="cls-1" points="74.59 .58 74.25 16.85 78.32 16.85 78.67 0 74.59 .58"/>
      <polygon class="cls-1" points="133.31 11.47 137.34 10.82 134.88 73.7 165.78 67.65 165.78 70.84 130.73 77.7 133.31 11.47"/>
      <polygon class="cls-1" points="217.8 58.07 216.51 65.25 246.41 70.63 245.58 75.23 212.36 69.25 214.32 58.38 217.8 58.07"/>
      <polygon class="cls-1" points="318.2 54.42 318.2 61.5 339.87 61.5 339.87 57.5 322.36 57.5 322.36 55.03 318.2 54.42"/>
      <polygon class="cls-1" points="322.36 13.29 322.35 41.03 320.31 28.25 318.2 28.05 318.2 15.13 322.36 13.29"/>
    </g>
    <g>
      <polygon class="cls-4" points="73.36 59.01 72.99 76.81 96.97 82.76 97.62 77.89 77.15 72.81 77.44 59.01 73.36 59.01"/>
      <polygon class="cls-4" points="74.59 .58 74.25 16.85 78.32 16.85 78.67 0 74.59 .58"/>
      <polygon class="cls-4" points="133.31 11.47 137.34 10.82 134.88 73.7 165.78 67.65 165.78 70.84 130.73 77.7 133.31 11.47"/>
      <polygon class="cls-4" points="217.8 58.07 216.51 65.25 246.41 70.63 245.58 75.23 212.36 69.25 214.32 58.38 217.8 58.07"/>
      <polygon class="cls-4" points="318.2 54.42 318.2 61.5 339.87 61.5 339.87 57.5 322.36 57.5 322.36 55.03 318.2 54.42"/>
      <polygon class="cls-4" points="322.36 13.29 322.35 41.03 320.31 28.25 318.2 28.05 318.2 15.13 322.36 13.29"/>
    </g>
    <polygon class="cls-4" points="220.93 21.5 221.74 36.04 225.76 13.71 222.44 13.11 220.93 21.5"/>
    <polygon class="cls-2" points="4.37 .91 9.08 67.54 51.98 63.07 51.98 66.78 4.92 71.54 0 1.86 4.37 .91"/>
    <polygon class="cls-2" points="213.65 61.89 188.91 64.1 189.04 58.1 193.11 57.78 193.06 60.1 214.32 58.2 213.65 61.89"/>
    <polygon class="cls-2" points="277.18 61.32 251.49 61.32 250.74 65.44 277.18 65.44 277.18 61.32"/>
    <polygon class="cls-2" points="318.2 54.24 318.2 58.84 301.03 56.36 301.03 30.53 303.94 30.66 303.94 52.1 318.2 54.24"/>
    <rect class="cls-3" x="56.13" y="54.83" width="21.31" height="4"/>
    <polygon class="cls-3" points="169.94 59.59 193.11 57.78 193.19 54.15 169.94 55.92 169.94 59.59"/>
    <polygon class="cls-3" points="281.33 53.77 281.33 57.32 301.03 54.57 301.03 51.15 281.33 53.77"/>
  </g>
</svg>