<?xml version="1.0" encoding="UTF-8"?>
<svg id="_Слой_2" data-name="Слой 2" xmlns="http://www.w3.org/2000/svg" viewBox="0 0 724.39 175.49">
  <defs>
    <style>
      .cls-1 {
        fill: #009ee2;
      }

      .cls-2 {
        fill: #e5007e;
      }

      .cls-3 {
        fill: #e20613;
      }
    </style>
  </defs>
  <g id="_фон" data-name="фон">
    <g id="_инфо" data-name="инфо">
      <g>
        <polygon points="25.9 114.68 25.9 12.36 40.64 12.36 60.34 66.54 60.64 66.54 80.19 12.36 101.25 12.36 101.25 114.68 79.74 114.68 79.74 52.45 79.44 52.45 64.25 96.43 56.58 96.43 41.54 52.45 41.24 52.45 41.24 114.68 25.9 114.68"/>
        <path d="m318.57,105.84c0,6.35,2.5,9.57,7.39,9.57s7.38-3.22,7.38-8.11V19.99h20.5v85.95c0,8.33-2.5,15.09-7.38,20.19-4.9,5.1-11.76,7.6-20.82,7.6-18.01,0-27.79-10.09-27.68-27.89h20.61Z"/>
        <path d="m393.03,111.83l-.34-5.4h-.21c-1.27,2.04-2.57,3.61-3.92,4.74-1.36,1.12-3.32,1.77-5.87,1.93-1.25.08-2.52-.04-3.83-.33-1.31-.3-2.58-.93-3.82-1.9-1.24-.9-2.27-2.24-3.12-4.03-.84-1.79-1.35-4.14-1.53-7.04-.19-2.98-.11-5.6.24-7.89.35-2.28,1.12-4.22,2.34-5.82,1.16-1.53,2.79-2.73,4.89-3.59,2.1-.86,4.82-1.4,8.14-1.6.35-.03.72-.05,1.13-.08.42-.03.8-.01,1.15.04.35.05.77.06,1.25.03.49-.03,1.01-.03,1.56,0l-.34-5.5c-.11-1.8-.59-3.26-1.43-4.4-.83-1.12-2.25-1.63-4.26-1.5-1.39.09-2.62.61-3.71,1.59-1.09.97-1.75,2.33-1.98,4.08l-10.28.65c-.02-4.73,1.33-8.63,4.06-11.72,1.3-1.47,2.89-2.67,4.78-3.59,1.89-.91,4.04-1.45,6.47-1.6,2.21-.14,4.31.08,6.3.65,1.98.57,3.75,1.51,5.28,2.8,1.47,1.3,2.69,2.96,3.66,4.99.95,2.02,1.52,4.42,1.7,7.19l2.29,36.66-10.6.66Zm-1.42-22.64c-1.19-.14-2.17-.18-2.93-.13-2.28.14-4.21.8-5.76,1.98-1.57,1.17-2.26,3.18-2.08,6.02.13,2.01.71,3.6,1.76,4.79,1.04,1.19,2.44,1.72,4.16,1.61,1.81-.11,3.17-.78,4.11-2.03.92-1.24,1.32-2.93,1.18-5.08l-.45-7.17Z"/>
        <path d="m464.2,105.31c-6.17,2.58-12.1,4.09-17.81,4.49-5.67.41-10.82-.53-15.41-2.83-4.6-2.3-8.3-5.59-11.09-9.9-2.79-4.3-4.39-9.3-4.8-15.01-.62-8.58,1.66-15.91,6.84-21.99,5.18-6.09,11.72-9.41,19.63-9.98,5.85-.43,12.11.23,18.79,1.95l.66,9.07c-6.81-2.53-12.81-3.61-18.02-3.23-3.44.25-6.63,1.34-9.55,3.26-2.92,1.93-5.07,4.76-6.46,8.49-1.4,3.74-1.96,7.51-1.68,11.33.37,5.11,2.32,9.85,5.84,14.25,3.52,4.4,8.71,6.35,15.53,5.86,2.06-.15,4.08-.44,6.05-.87,1.97-.43,5.58-1.75,10.82-3.96l.65,9.07Z"/>
        <path d="m517.68,109.97c1.85,3.53,4.15,6.68,6.88,9.45l-8.08,8.24c-1.46-1.3-2.8-2.8-4.01-4.51-.3-.37-2.06-3.44-5.3-9.21-4.53.52-9.21-.16-14.04-2.05-8.2-3.21-13.64-8.87-16.3-16.98-2.67-8.11-1.73-17.99,2.82-29.64,4.57-11.67,10.59-19.57,18.08-23.71,7.49-4.13,15.37-4.57,23.64-1.34,8.18,3.19,13.6,8.85,16.27,16.97,2.67,8.11,1.73,18-2.81,29.64-2.21,5.65-4.67,10.29-7.39,13.91-2.72,3.64-5.98,6.71-9.78,9.22m-6.15-11.51c4.57-2.95,8.39-8.35,11.46-16.2,3.18-8.14,4.06-14.74,2.66-19.8-1.41-5.06-4.42-8.49-9.04-10.29-4.61-1.8-9.15-1.33-13.64,1.44-4.49,2.75-8.31,8.19-11.48,16.29-3.21,8.23-4.12,14.91-2.72,20.02,1.41,5.11,4.3,8.52,8.69,10.24,1.64.64,3.33.92,5.07.84-1.66-2.83-3.45-5.21-5.4-7.13l6.35-6.74c3.17,3.06,5.86,6.83,8.06,11.33"/>
        <path d="m624.17,92.9c-2.15,3.52-4.73,6.19-7.76,7.97-3.02,1.79-5.8,2.68-8.33,2.68-3.54,0-6.72-1.53-9.54-4.59-2.82-3.06-4.24-7.7-4.24-13.92,0-4.91.94-9.29,2.81-13.15,1.88-3.86,4.38-6.9,7.52-9.14,3.14-2.24,7.02-3.36,11.66-3.36,1.34,0,3.36.14,6.06.42.4.05,1.01.11,1.81.19h7.08v29.92c0,5.12.55,9.26,1.63,12.45h-7.36c-.57-2.31-1.02-5.47-1.36-9.48m.03-8.44v-18.19c-2.51-.66-4.84-.99-6.99-.99-4.36,0-7.98,1.69-10.89,5.05-2.9,3.37-4.35,7.95-4.35,13.75,0,4.2.79,7.38,2.37,9.52,1.59,2.13,3.39,3.21,5.42,3.21,2.2,0,4.63-1.11,7.3-3.34,2.66-2.23,5.04-5.23,7.15-9"/>
        <path d="m652.07,68.09h7.79l1.27,5.8c1.08-2.26,2.62-3.86,4.6-4.78,1.97-.92,4.64-1.38,7.99-1.38v10.04h-1.21c-7.13,0-10.69,3.44-10.69,10.33v16.41h-9.76v-36.43Z"/>
        <path d="m710.46,114.15v-5.43c-.69.76-1.36,1.48-1.98,2.13-.62.66-1.32,1.23-2.07,1.72-.77.48-1.63.87-2.61,1.14-.97.28-2.11.42-3.43.42-4.44,0-7.53-1.67-9.27-5-.62-1.18-1.07-2.64-1.35-4.37-.28-1.73-.42-4.06-.42-6.97v-20.08c0-3.82.1-6.62.31-8.43.42-3.46,2.04-6.07,4.9-7.8,1.32-.9,3.29-1.36,5.94-1.36,2.08,0,3.94.47,5.56,1.41,1.63.94,3.03,2.27,4.22,4.01h.21V30.33h13.93v83.82h-13.93Zm-10.51-17.82c0,2.15.42,3.89,1.25,5.2.83,1.32,2.15,1.98,3.95,1.98,1.6,0,2.87-.61,3.85-1.82.97-1.22,1.46-2.79,1.46-4.74v-20.5c0-1.66-.5-3.03-1.51-4.11-1.01-1.07-2.27-1.62-3.8-1.62-2.01,0-3.39.63-4.11,1.88-.74,1.25-1.09,2.7-1.09,4.37v19.36Z"/>
        <path d="m177.85,112.76c2.81,2.51,7.6,4.35,11.55,4.35,6.45,0,9.58-5.35,9.58-12.71,0-8.19-3.12-12.21-9.06-18.4-9.58-9.36-13.22-21.24-13.22-31.45,0-18.06,7.49-33.12,22.17-33.12,4.57,0,8.95,2.01,11.03,4.02l-2.19,18.9c-1.97-2.01-4.99-3.85-8.95-3.85-5.83,0-8.64,5.69-8.64,11.71,0,6.69,2.08,10.2,9.68,17.56,9.26,9.03,12.7,20.41,12.7,32.28,0,20.57-9.47,34.12-23.21,34.12-5.62,0-11.14-2.34-13.43-4.52l1.98-18.9Z"/>
        <path d="m160.79,56.63c4.51,5,6.76,11.79,6.76,20.4s-2.25,15.4-6.76,20.4c-4.51,5-10.65,7.49-18.42,7.49s-13.89-2.5-18.37-7.49c-4.47-5-6.71-11.79-6.71-20.4s2.24-15.4,6.71-20.4c4.47-5,10.59-7.49,18.37-7.49s13.91,2.5,18.42,7.49m-29.76,5.46c-2.77,3.64-4.16,8.62-4.16,14.93s1.39,11.29,4.16,14.93c2.77,3.64,6.56,5.46,11.34,5.46s8.67-1.82,11.45-5.46c2.77-3.64,4.16-8.62,4.16-14.93s-1.39-11.29-4.16-14.93c-2.78-3.64-6.59-5.46-11.45-5.46s-8.57,1.82-11.34,5.46"/>
        <path d="m579.8,59.4v32.6c0,1.97-.07,3.53-.2,4.67-.18,1.14-.46,2.15-.86,3.03-.52,1.32-1.41,2.55-2.63,3.69-1.23,1.14-2.81,2.06-4.75,2.77-1.93.7-4.25,1.05-6.97,1.05-3.25,0-6.02-.48-8.31-1.45-2.24-.96-3.97-2.42-5.2-4.35-.53-.78-.91-1.55-1.18-2.3-.31-.7-.51-1.63-.6-2.77-.13-1.14-.19-2.72-.19-4.75v-32.01h10.6v31.74c0,1.28.09,2.4.27,3.36.17.96.52,1.76,1.05,2.37.34.48.83.86,1.44,1.12.62.26,1.32.4,2.11.4.87,0,1.62-.09,2.23-.27.57-.22,1.03-.55,1.38-.98.44-.53.75-1.28.92-2.24.18-.97.27-2.15.27-3.56v-32.02h10.53l.07-.13Z"/>
        <g>
          <polygon points="9.27 1.94 19.25 143.22 110.21 133.73 110.21 141.61 10.44 151.7 0 3.95 9.27 1.94"/>
          <rect x="119.02" y="116.27" width="45.18" height="8.48"/>
          <polygon points="360.34 126.36 409.48 122.52 409.65 114.83 360.34 118.57 360.34 126.36"/>
          <polygon points="453.04 131.23 400.56 135.91 400.84 123.2 409.48 122.52 409.37 127.43 454.44 123.41 453.04 131.23"/>
          <polygon points="468.46 45.59 470.19 76.41 478.72 29.07 471.66 27.8 468.46 45.59"/>
          <polygon points="587.74 130.02 533.26 130.02 531.69 138.76 587.74 138.76 587.74 130.02"/>
          <polygon points="596.54 114.01 596.54 121.54 638.31 115.71 638.31 108.45 596.54 114.01"/>
          <path d="m643.35,110.47l1.15-45.45-1.15,45.45Z"/>
          <polygon points="674.73 115.02 674.73 124.78 638.31 119.5 638.31 64.74 644.49 65.02 644.49 110.47 674.73 115.02"/>
          <g>
            <polygon points="155.56 125.13 154.77 162.87 205.61 175.49 206.99 165.16 163.59 154.39 164.2 125.13 155.56 125.13"/>
            <polygon points="158.15 1.22 157.43 35.74 166.07 35.74 166.82 0 158.15 1.22"/>
            <polygon points="282.68 24.32 291.22 22.94 286.01 156.28 351.53 143.46 351.53 150.21 277.2 164.76 282.68 24.32"/>
            <polygon points="461.84 123.13 459.1 138.36 522.5 149.78 520.74 159.53 450.29 146.84 454.44 123.79 461.84 123.13"/>
            <polygon points="674.73 115.4 674.73 130.4 720.68 130.4 720.68 121.92 683.54 121.92 683.54 116.68 674.73 115.4"/>
            <polygon points="683.54 28.18 683.52 87.01 679.19 59.89 674.73 59.47 674.73 32.08 683.54 28.18"/>
          </g>
          <g>
            <polygon class="cls-3" points="155.56 125.13 154.77 162.87 205.61 175.49 206.99 165.16 163.59 154.39 164.2 125.13 155.56 125.13"/>
            <polygon class="cls-3" points="158.15 1.22 157.43 35.74 166.07 35.74 166.82 0 158.15 1.22"/>
            <polygon class="cls-3" points="282.68 24.32 291.22 22.94 286.01 156.28 351.53 143.46 351.53 150.21 277.2 164.76 282.68 24.32"/>
            <polygon class="cls-3" points="461.84 123.13 459.1 138.36 522.5 149.78 520.74 159.53 450.29 146.84 454.44 123.79 461.84 123.13"/>
            <polygon class="cls-3" points="674.73 115.4 674.73 130.4 720.68 130.4 720.68 121.92 683.54 121.92 683.54 116.68 674.73 115.4"/>
            <polygon class="cls-3" points="683.54 28.18 683.52 87.01 679.19 59.89 674.73 59.47 674.73 32.08 683.54 28.18"/>
          </g>
          <polygon class="cls-3" points="468.46 45.59 470.19 76.41 478.72 29.07 471.66 27.8 468.46 45.59"/>
          <polygon class="cls-1" points="9.27 1.94 19.25 143.22 110.21 133.73 110.21 141.61 10.44 151.7 0 3.95 9.27 1.94"/>
          <polygon class="cls-1" points="453.04 131.23 400.56 135.91 400.84 123.2 409.48 122.52 409.37 127.43 454.44 123.41 453.04 131.23"/>
          <polygon class="cls-1" points="587.74 130.02 533.26 130.02 531.69 138.76 587.74 138.76 587.74 130.02"/>
          <polygon class="cls-1" points="674.73 115.02 674.73 124.78 638.31 119.5 638.31 64.74 644.49 65.02 644.49 110.47 674.73 115.02"/>
          <rect class="cls-2" x="119.02" y="116.27" width="45.18" height="8.48"/>
          <polygon class="cls-2" points="360.34 126.36 409.48 122.52 409.65 114.83 360.34 118.57 360.34 126.36"/>
          <polygon class="cls-2" points="596.54 114.01 596.54 121.54 638.31 115.71 638.31 108.45 596.54 114.01"/>
        </g>
      </g>
    </g>
  </g>
</svg>