<?xml version="1.0" encoding="UTF-8"?>
<svg id="_Режим_изоляции" data-name="Режим изоляции" xmlns="http://www.w3.org/2000/svg" viewBox="0 0 87.52 119.78">
  <path d="m68.59,76.45c-1.78,0-3.57.01-5.35-.01-.43,0-.67.13-.89.5-1.71,2.99-3.44,5.98-5.16,8.96-.97,1.68-2.31,2.03-4,1.06-3-1.73-6.01-3.46-9-5.2-.32-.18-.54-.19-.85,0-2.96,1.73-5.93,3.43-8.9,5.15-1.83,1.06-3.12.72-4.16-1.1-1.7-2.95-3.41-5.9-5.1-8.86-.21-.37-.45-.51-.88-.51-3.47.02-6.94.01-10.41,0-1.82,0-2.83-1.01-2.83-2.83,0-3.47,0-6.94.01-10.41,0-.44-.15-.66-.52-.87-2.99-1.71-5.97-3.44-8.96-5.16-1.63-.94-2-2.29-1.07-3.9,1.73-3,3.46-6.01,5.21-9,.22-.38.21-.65,0-1.02-1.75-2.99-3.48-6-5.21-9-.91-1.59-.54-2.96,1.04-3.87,3.02-1.74,6.04-3.49,9.06-5.22.34-.19.46-.4.45-.79-.02-3.47-.01-6.94,0-10.41,0-1.89,1-2.89,2.9-2.89,3.45,0,6.9,0,10.35.01.44,0,.67-.15.88-.52,1.71-2.99,3.43-5.98,5.16-8.96.95-1.64,2.32-2,3.96-1.06,2.97,1.71,5.94,3.42,8.9,5.15.41.24.7.26,1.11.01,2.92-1.71,5.86-3.4,8.8-5.09,1.79-1.04,3.1-.7,4.12,1.08,1.71,2.95,3.42,5.9,5.1,8.86.23.4.48.53.94.53,3.43-.02,6.86,0,10.29-.01.73,0,1.42.09,2,.6.66.57.92,1.31.92,2.17,0,3.47,0,6.94-.01,10.41,0,.47.12.73.55.98,2.96,1.68,5.91,3.39,8.86,5.1,1.74,1,2.09,2.31,1.1,4.03-1.69,2.94-3.37,5.88-5.09,8.79-.28.48-.25.82.02,1.28,1.72,2.94,3.42,5.9,5.12,8.85.93,1.62.56,2.97-1.06,3.91-3,1.74-6,3.48-9.01,5.19-.37.21-.48.44-.47.84.01,3.47,0,6.94,0,10.41,0,1.83-1.01,2.84-2.82,2.85-1.69,0-3.37,0-5.06,0Zm12.9-42.8c-.21-.13-.4-.25-.58-.35-2.66-1.54-5.31-3.08-7.98-4.6-1.06-.6-1.56-1.45-1.55-2.66.02-3.05,0-6.11,0-9.16v-.76c-.28,0-.49,0-.7,0-3.07,0-6.15-.02-9.22,0-1.2.01-2.03-.47-2.62-1.51-1.53-2.69-3.09-5.36-4.63-8.03-.11-.18-.22-.36-.35-.55-.24.13-.43.24-.62.34-2.64,1.53-5.29,3.04-7.92,4.59-1.07.63-2.06.62-3.13,0-2.64-1.56-5.31-3.08-7.97-4.62-.18-.1-.37-.2-.57-.31-.14.24-.26.43-.37.61-1.54,2.66-3.08,5.31-4.6,7.98-.58,1.01-1.39,1.5-2.56,1.5-3.09-.02-6.19,0-9.28,0-.21,0-.42,0-.7,0,0,.28,0,.49,0,.71,0,3.05-.02,6.11,0,9.16,0,1.23-.47,2.13-1.56,2.72-1.11.61-2.2,1.26-3.3,1.89-1.75,1.01-3.5,2.02-5.26,3.04.13.22.23.41.34.6,1.53,2.66,3.06,5.33,4.61,7.98.61,1.05.62,2.04,0,3.08-.97,1.63-1.91,3.29-2.86,4.94-.69,1.2-1.38,2.4-2.09,3.62.2.12.36.23.53.32,2.66,1.54,5.31,3.09,7.98,4.6,1.12.63,1.62,1.53,1.61,2.81-.03,3.01,0,6.03,0,9.04,0,.23,0,.46,0,.76h.77c3.05,0,6.11.01,9.16,0,1.19,0,2.03.48,2.62,1.51,1.52,2.67,3.07,5.32,4.6,7.98.12.2.24.39.37.6.25-.14.44-.24.63-.35,2.64-1.52,5.29-3.04,7.92-4.58,1.04-.61,2.03-.63,3.08-.02,2.67,1.56,5.35,3.1,8.03,4.64.18.1.37.2.56.31.15-.25.26-.43.37-.62,1.52-2.63,3.05-5.24,4.54-7.88.62-1.1,1.49-1.61,2.75-1.6,3.03.03,6.07.01,9.1.01.23,0,.46,0,.75,0,0-.29,0-.51,0-.72,0-3.05.01-6.11,0-9.16,0-1.24.5-2.1,1.58-2.71,2.71-1.53,5.39-3.1,8.08-4.66.15-.09.29-.19.45-.29-.1-.19-.19-.34-.27-.5-1.73-3-3.45-6.01-5.21-9-.27-.46-.25-.78.02-1.22,1.47-2.49,2.9-5,4.35-7.51.37-.65.75-1.3,1.13-1.98Z"/>
  <path d="m60.55,112.15c2.08-2.54,4.12-4.97,6.08-7.46.93-1.18,1.98-1.6,3.47-1.29,3.12.65,6.26,1.19,9.5,1.8-.08-.25-.13-.44-.2-.63-2.59-7.11-5.18-14.21-7.76-21.32-.54-1.48-.03-2.83,1.26-3.41,1.38-.63,2.91.04,3.46,1.54.91,2.45,1.79,4.91,2.68,7.37,2.27,6.23,4.54,12.46,6.81,18.7.59,1.62-.12,3.15-1.66,3.54-.41.1-.87.09-1.29.02-4.07-.75-8.14-1.52-12.2-2.31-.48-.09-.78,0-1.1.4-2.57,3.18-5.17,6.32-7.74,9.5-.69.86-1.53,1.34-2.63,1.14-1.08-.19-1.69-.91-2.05-1.93-2.97-8.21-5.97-16.41-8.96-24.61-.5-1.38-.02-2.71,1.18-3.31,1.15-.58,2.56-.21,3.25.86.17.26.29.56.39.86,2.42,6.64,4.84,13.28,7.26,19.92.07.18.14.36.25.63Z"/>
  <text/>
  <path d="m43.73,69.56c-14.3-.04-25.85-11.62-25.79-25.87.05-14.26,11.67-25.84,25.85-25.77,14.32.07,25.85,11.64,25.79,25.89-.05,14.27-11.63,25.8-25.85,25.76Zm-20.7-25.85c-.03,11.47,9.26,20.78,20.74,20.79,11.4,0,20.67-9.24,20.72-20.69.05-11.46-9.23-20.79-20.71-20.81-11.43-.02-20.73,9.25-20.75,20.71Z"/>
</svg>